{
	"patcher" : 	{
		"fileversion" : 1,
		"appversion" : 		{
			"major" : 8,
			"minor" : 1,
			"revision" : 3,
			"architecture" : "x64",
			"modernui" : 1
		}
,
		"classnamespace" : "box",
		"rect" : [ 39.0, 92.0, 138.0, 130.0 ],
		"bglocked" : 0,
		"openinpresentation" : 1,
		"default_fontsize" : 12.0,
		"default_fontface" : 0,
		"default_fontname" : "Arial",
		"gridonopen" : 1,
		"gridsize" : [ 8.0, 8.0 ],
		"gridsnaponopen" : 1,
		"objectsnaponopen" : 1,
		"statusbarvisible" : 2,
		"toolbarvisible" : 1,
		"lefttoolbarpinned" : 0,
		"toptoolbarpinned" : 0,
		"righttoolbarpinned" : 0,
		"bottomtoolbarpinned" : 0,
		"toolbars_unpinned_last_save" : 0,
		"tallnewobj" : 0,
		"boxanimatetime" : 200,
		"enablehscroll" : 0,
		"enablevscroll" : 0,
		"devicewidth" : 0.0,
		"description" : "Procedurally colorize a video image",
		"digest" : "",
		"tags" : "Vizzie Effect, colorizr",
		"style" : "",
		"subpatcher_template" : "",
		"boxes" : [ 			{
				"box" : 				{
					"id" : "obj-19",
					"maxclass" : "newobj",
					"numinlets" : 1,
					"numoutlets" : 1,
					"outlettype" : [ "" ],
					"patching_rect" : [ 558.20001220703125, 112.498412999999999, 74.0, 22.0 ],
					"text" : "exact_menu"
				}

			}
, 			{
				"box" : 				{
					"fontname" : "Ableton Sans Medium",
					"fontsize" : 12.0,
					"id" : "obj-2",
					"maxclass" : "newobj",
					"numinlets" : 1,
					"numoutlets" : 3,
					"outlettype" : [ "", "", "" ],
					"patching_rect" : [ 510.20001220703125, 235.5, 68.0, 23.0 ],
					"restore" : [ 2 ],
					"saved_object_attributes" : 					{
						"parameter_enable" : 0,
						"parameter_mappable" : 0
					}
,
					"text" : "pattr plane",
					"varname" : "plane"
				}

			}
, 			{
				"box" : 				{
					"fontname" : "Ableton Sans Medium",
					"fontsize" : 12.0,
					"id" : "obj-1",
					"maxclass" : "newobj",
					"numinlets" : 1,
					"numoutlets" : 3,
					"outlettype" : [ "", "", "" ],
					"patching_rect" : [ 661.20001220703125, 235.5, 77.0, 23.0 ],
					"restore" : [ 0 ],
					"saved_object_attributes" : 					{
						"parameter_enable" : 0,
						"parameter_mappable" : 0
					}
,
					"text" : "pattr palette",
					"varname" : "palette"
				}

			}
, 			{
				"box" : 				{
					"fontname" : "Ableton Sans Medium",
					"fontsize" : 10.0,
					"id" : "obj-36",
					"maxclass" : "comment",
					"numinlets" : 1,
					"numoutlets" : 0,
					"patching_rect" : [ 67.609557999999993, 251.0, 45.0, 18.0 ],
					"presentation" : 1,
					"presentation_rect" : [ 75.651386260986328, 52.0, 50.915611267089844, 18.0 ],
					"text" : "Invert",
					"textjustification" : 1
				}

			}
, 			{
				"box" : 				{
					"fontname" : "Ableton Sans Medium",
					"fontsize" : 10.0,
					"id" : "obj-35",
					"maxclass" : "comment",
					"numinlets" : 1,
					"numoutlets" : 0,
					"patching_rect" : [ 67.609557999999993, 273.0, 45.0, 18.0 ],
					"presentation" : 1,
					"presentation_rect" : [ 15.217384338378906, 69.716514587402344, 50.915611267089844, 18.0 ],
					"text" : "Palette",
					"textjustification" : 1
				}

			}
, 			{
				"box" : 				{
					"fontname" : "Ableton Sans Medium",
					"fontsize" : 10.0,
					"id" : "obj-18",
					"maxclass" : "comment",
					"numinlets" : 1,
					"numoutlets" : 0,
					"patching_rect" : [ 67.609557999999993, 297.0, 45.0, 18.0 ],
					"presentation" : 1,
					"presentation_rect" : [ 15.217384338378906, 37.0, 50.915611267089844, 18.0 ],
					"text" : "Source",
					"textjustification" : 1
				}

			}
, 			{
				"box" : 				{
					"align" : 1,
					"arrow" : 0,
					"bgcolor" : [ 0.0, 0.0, 0.0, 1.0 ],
					"bgfillcolor_angle" : 270.0,
					"bgfillcolor_autogradient" : 0.0,
					"bgfillcolor_color" : [ 0.0, 0.0, 0.0, 1.0 ],
					"bgfillcolor_color1" : [ 0.0, 0.0, 0.0, 1.0 ],
					"bgfillcolor_color2" : [ 0.2, 0.2, 0.2, 1.0 ],
					"bgfillcolor_proportion" : 0.5,
					"bgfillcolor_type" : "color",
					"fontname" : "Ableton Sans Bold Regular",
					"fontsize" : 9.0,
					"hint" : "Choose a color palette used for colorization",
					"id" : "obj-25",
					"items" : [ 1, ",", 2, ",", 3, ",", 4, ",", 5, ",", 6 ],
					"maxclass" : "umenu",
					"numinlets" : 1,
					"numoutlets" : 3,
					"outlettype" : [ "int", "", "" ],
					"parameter_enable" : 1,
					"patching_rect" : [ 639.20001220703125, 279.298385534179715, 77.0, 19.0 ],
					"presentation" : 1,
					"presentation_rect" : [ 15.217384338378906, 85.0, 53.257423639297485, 19.0 ],
					"saved_attribute_attributes" : 					{
						"valueof" : 						{
							"parameter_mmax" : 5,
							"parameter_initial" : [ 0.0 ],
							"parameter_shortname" : "Color palette",
							"parameter_enum" : [ "1", "2", "3", "4", "5", "6" ],
							"parameter_type" : 2,
							"parameter_longname" : "Color palette",
							"parameter_initial_enable" : 1
						}

					}
,
					"textjustification" : 1,
					"varname" : "umenu[1]"
				}

			}
, 			{
				"box" : 				{
					"activebgcolor" : [ 0.1, 0.1, 0.1, 1.0 ],
					"activebgoncolor" : [ 1.0, 1.0, 1.0, 1.0 ],
					"bgcolor" : [ 0.1, 0.1, 0.1, 1.0 ],
					"bgoncolor" : [ 1.0, 1.0, 1.0, 1.0 ],
					"bordercolor" : [ 1.0, 1.0, 1.0, 1.0 ],
					"focusbordercolor" : [ 1.0, 1.0, 1.0, 1.0 ],
					"hint" : "Choose a color palette used for colorization",
					"id" : "obj-26",
					"ignoreclick" : 1,
					"maxclass" : "live.toggle",
					"numinlets" : 1,
					"numoutlets" : 1,
					"outlettype" : [ "" ],
					"parameter_enable" : 1,
					"parameter_mappable" : 0,
					"patching_rect" : [ 674.70001220703125, 119.498412999999999, 15.0, 15.0 ],
					"presentation" : 1,
					"presentation_rect" : [ 84.47479248046875, 3.0, 9.742591857910156, 9.742591857910156 ],
					"rounded" : 15.0,
					"saved_attribute_attributes" : 					{
						"valueof" : 						{
							"parameter_mmax" : 1,
							"parameter_initial" : [ 1.0 ],
							"parameter_shortname" : "pictctrl[1]",
							"parameter_enum" : [ "off", "on" ],
							"parameter_type" : 2,
							"parameter_longname" : "pictctrl[5]",
							"parameter_initial_enable" : 1,
							"parameter_invisible" : 2
						}

					}
,
					"varname" : "pictctrl[2]"
				}

			}
, 			{
				"box" : 				{
					"id" : "obj-27",
					"maxclass" : "newobj",
					"numinlets" : 6,
					"numoutlets" : 1,
					"outlettype" : [ "" ],
					"patching_rect" : [ 639.20001220703125, 178.898406896484374, 90.0, 22.0 ],
					"text" : "scale 0. 1. 0. 6."
				}

			}
, 			{
				"box" : 				{
					"id" : "obj-29",
					"maxclass" : "newobj",
					"numinlets" : 1,
					"numoutlets" : 1,
					"outlettype" : [ "" ],
					"patching_rect" : [ 639.20001220703125, 315.698409948242215, 92.0, 22.0 ],
					"text" : "prepend palette"
				}

			}
, 			{
				"box" : 				{
					"fontname" : "Ableton Sans Medium",
					"fontsize" : 12.0,
					"id" : "obj-32",
					"maxclass" : "newobj",
					"numinlets" : 1,
					"numoutlets" : 3,
					"outlettype" : [ "", "", "" ],
					"patching_rect" : [ 639.20001220703125, 77.498412999999999, 88.0, 23.0 ],
					"text" : "data-handler"
				}

			}
, 			{
				"box" : 				{
					"comment" : "Choose a color palette used for colorization",
					"id" : "obj-33",
					"index" : 0,
					"maxclass" : "inlet",
					"numinlets" : 0,
					"numoutlets" : 1,
					"outlettype" : [ "" ],
					"patching_rect" : [ 639.20001220703125, 45.698409948242187, 25.0, 25.0 ]
				}

			}
, 			{
				"box" : 				{
					"align" : 1,
					"arrow" : 0,
					"bgcolor" : [ 0.0, 0.0, 0.0, 1.0 ],
					"bgfillcolor_angle" : 270.0,
					"bgfillcolor_autogradient" : 0.0,
					"bgfillcolor_color" : [ 0.0, 0.0, 0.0, 1.0 ],
					"bgfillcolor_color1" : [ 0.0, 0.0, 0.0, 1.0 ],
					"bgfillcolor_color2" : [ 0.2, 0.2, 0.2, 1.0 ],
					"bgfillcolor_proportion" : 0.5,
					"bgfillcolor_type" : "color",
					"fontname" : "Ableton Sans Bold Regular",
					"fontsize" : 9.0,
					"hint" : "Choose a color plane as the colorization source.",
					"id" : "obj-24",
					"items" : [ "red", ",", "green", ",", "blue" ],
					"maxclass" : "umenu",
					"numinlets" : 1,
					"numoutlets" : 3,
					"outlettype" : [ "int", "", "" ],
					"parameter_enable" : 1,
					"patching_rect" : [ 489.20001220703125, 279.298385534179715, 77.0, 19.0 ],
					"presentation" : 1,
					"presentation_rect" : [ 15.217384338378906, 52.0, 53.0, 19.0 ],
					"saved_attribute_attributes" : 					{
						"valueof" : 						{
							"parameter_mmax" : 2,
							"parameter_initial" : [ 1 ],
							"parameter_shortname" : "Color plane",
							"parameter_enum" : [ "red", "green", "blue" ],
							"parameter_type" : 2,
							"parameter_longname" : "Color plane",
							"parameter_initial_enable" : 1
						}

					}
,
					"textjustification" : 1,
					"varname" : "umenu"
				}

			}
, 			{
				"box" : 				{
					"activebgcolor" : [ 0.1, 0.1, 0.1, 1.0 ],
					"activebgoncolor" : [ 1.0, 1.0, 1.0, 1.0 ],
					"bgcolor" : [ 0.1, 0.1, 0.1, 1.0 ],
					"bgoncolor" : [ 1.0, 1.0, 1.0, 1.0 ],
					"bordercolor" : [ 1.0, 1.0, 1.0, 1.0 ],
					"focusbordercolor" : [ 1.0, 1.0, 1.0, 1.0 ],
					"hint" : "Choose a color plane as the colorization source",
					"id" : "obj-104",
					"ignoreclick" : 1,
					"maxclass" : "live.toggle",
					"numinlets" : 1,
					"numoutlets" : 1,
					"outlettype" : [ "" ],
					"parameter_enable" : 1,
					"parameter_mappable" : 0,
					"patching_rect" : [ 524.70001220703125, 119.498412999999999, 15.0, 15.0 ],
					"presentation" : 1,
					"presentation_rect" : [ 44.47479248046875, 3.0, 9.742591857910156, 9.742591857910156 ],
					"rounded" : 15.0,
					"saved_attribute_attributes" : 					{
						"valueof" : 						{
							"parameter_mmax" : 1,
							"parameter_initial" : [ 1.0 ],
							"parameter_shortname" : "pictctrl[1]",
							"parameter_enum" : [ "off", "on" ],
							"parameter_type" : 2,
							"parameter_longname" : "pictctrl[9]",
							"parameter_initial_enable" : 1,
							"parameter_invisible" : 2
						}

					}
,
					"varname" : "pictctrl[1]"
				}

			}
, 			{
				"box" : 				{
					"id" : "obj-47",
					"maxclass" : "newobj",
					"numinlets" : 6,
					"numoutlets" : 1,
					"outlettype" : [ "" ],
					"patching_rect" : [ 489.20001220703125, 178.898406896484374, 90.0, 22.0 ],
					"text" : "scale 0. 1. 0. 3."
				}

			}
, 			{
				"box" : 				{
					"id" : "obj-15",
					"maxclass" : "newobj",
					"numinlets" : 1,
					"numoutlets" : 1,
					"outlettype" : [ "" ],
					"patching_rect" : [ 489.20001220703125, 315.698409948242215, 103.0, 22.0 ],
					"text" : "prepend swiz_me"
				}

			}
, 			{
				"box" : 				{
					"fontname" : "Ableton Sans Medium",
					"fontsize" : 12.0,
					"id" : "obj-17",
					"maxclass" : "newobj",
					"numinlets" : 1,
					"numoutlets" : 3,
					"outlettype" : [ "", "", "" ],
					"patching_rect" : [ 489.20001220703125, 77.498412999999999, 88.0, 23.0 ],
					"text" : "data-handler"
				}

			}
, 			{
				"box" : 				{
					"comment" : "Choose a color plane as the colorization source",
					"id" : "obj-23",
					"index" : 0,
					"maxclass" : "inlet",
					"numinlets" : 0,
					"numoutlets" : 1,
					"outlettype" : [ "" ],
					"patching_rect" : [ 489.20001220703125, 45.698409948242187, 25.0, 25.0 ]
				}

			}
, 			{
				"box" : 				{
					"id" : "obj-12",
					"maxclass" : "newobj",
					"numinlets" : 1,
					"numoutlets" : 1,
					"outlettype" : [ "" ],
					"patching_rect" : [ 801.5, 340.0, 85.0, 22.0 ],
					"text" : "prepend invert"
				}

			}
, 			{
				"box" : 				{
					"activebgcolor" : [ 0.1, 0.1, 0.1, 1.0 ],
					"activebgoncolor" : [ 1.0, 1.0, 1.0, 1.0 ],
					"bgcolor" : [ 0.1, 0.1, 0.1, 1.0 ],
					"bgoncolor" : [ 1.0, 1.0, 1.0, 1.0 ],
					"bordercolor" : [ 1.0, 1.0, 1.0, 1.0 ],
					"focusbordercolor" : [ 1.0, 1.0, 1.0, 1.0 ],
					"hint" : "Toggle inverting the swizzed color used for procedural coloring",
					"id" : "obj-128",
					"ignoreclick" : 1,
					"maxclass" : "live.toggle",
					"numinlets" : 1,
					"numoutlets" : 1,
					"outlettype" : [ "" ],
					"parameter_enable" : 1,
					"parameter_mappable" : 0,
					"patching_rect" : [ 832.0, 112.498412999999999, 15.0, 15.0 ],
					"presentation" : 1,
					"presentation_rect" : [ 123.0, 3.0, 9.742591857910156, 9.742591857910156 ],
					"rounded" : 15.0,
					"saved_attribute_attributes" : 					{
						"valueof" : 						{
							"parameter_mmax" : 1,
							"parameter_initial" : [ 1 ],
							"parameter_shortname" : "range",
							"parameter_enum" : [ "off", "on" ],
							"parameter_type" : 2,
							"parameter_longname" : "range[24]",
							"parameter_initial_enable" : 1,
							"parameter_invisible" : 2
						}

					}
,
					"varname" : "pictctrl[23]"
				}

			}
, 			{
				"box" : 				{
					"bgcolor" : [ 0.0, 0.0, 0.0, 1.0 ],
					"bgoncolor" : [ 1.0, 1.0, 1.0, 1.0 ],
					"fontface" : 1,
					"fontsize" : 10.0,
					"hint" : "Toggle inverting the swizzed color used for procedural coloring.",
					"id" : "obj-121",
					"maxclass" : "textbutton",
					"mode" : 1,
					"numinlets" : 1,
					"numoutlets" : 3,
					"outlettype" : [ "", "", "int" ],
					"parameter_enable" : 1,
					"patching_rect" : [ 805.0, 309.498413000000028, 20.0, 20.0 ],
					"presentation" : 1,
					"presentation_rect" : [ 91.10919189453125, 69.0, 20.0, 20.0 ],
					"rounded" : 20.0,
					"saved_attribute_attributes" : 					{
						"valueof" : 						{
							"parameter_mmax" : 1,
							"parameter_initial" : [ 0.0 ],
							"parameter_shortname" : "Invert",
							"parameter_enum" : [ "off", "on" ],
							"parameter_type" : 2,
							"parameter_longname" : "Invert",
							"parameter_initial_enable" : 1
						}

					}
,
					"text" : "I",
					"textcolor" : [ 1.0, 1.0, 1.0, 1.0 ],
					"texton" : "I",
					"textoncolor" : [ 0.0, 0.0, 0.0, 1.0 ],
					"usebgoncolor" : 1,
					"varname" : "Invert"
				}

			}
, 			{
				"box" : 				{
					"fontname" : "Ableton Sans Medium",
					"fontsize" : 12.0,
					"id" : "obj-168",
					"maxclass" : "newobj",
					"numinlets" : 1,
					"numoutlets" : 3,
					"outlettype" : [ "", "", "" ],
					"patching_rect" : [ 843.0, 277.498413000000028, 70.0, 23.0 ],
					"restore" : [ 0 ],
					"saved_object_attributes" : 					{
						"parameter_enable" : 0,
						"parameter_mappable" : 0
					}
,
					"text" : "pattr invert",
					"varname" : "invert"
				}

			}
, 			{
				"box" : 				{
					"fontname" : "Ableton Sans Medium",
					"fontsize" : 12.0,
					"id" : "obj-123",
					"maxclass" : "message",
					"numinlets" : 2,
					"numoutlets" : 1,
					"outlettype" : [ "" ],
					"patching_rect" : [ 858.0, 211.498412999999999, 33.0, 23.0 ],
					"text" : "1"
				}

			}
, 			{
				"box" : 				{
					"fontname" : "Ableton Sans Medium",
					"fontsize" : 12.0,
					"id" : "obj-124",
					"maxclass" : "message",
					"numinlets" : 2,
					"numoutlets" : 1,
					"outlettype" : [ "" ],
					"patching_rect" : [ 805.0, 211.498412999999999, 33.0, 23.0 ],
					"text" : "0"
				}

			}
, 			{
				"box" : 				{
					"fontname" : "Ableton Sans Medium",
					"fontsize" : 12.0,
					"id" : "obj-11",
					"maxclass" : "newobj",
					"numinlets" : 3,
					"numoutlets" : 2,
					"outlettype" : [ "float", "float" ],
					"patching_rect" : [ 805.0, 179.498412999999999, 74.0, 23.0 ],
					"text" : "split 0. 0.49"
				}

			}
, 			{
				"box" : 				{
					"fontname" : "Ableton Sans Medium",
					"fontsize" : 12.0,
					"id" : "obj-126",
					"maxclass" : "newobj",
					"numinlets" : 1,
					"numoutlets" : 3,
					"outlettype" : [ "", "", "" ],
					"patching_rect" : [ 805.0, 77.498412999999999, 78.0, 23.0 ],
					"text" : "data-handler"
				}

			}
, 			{
				"box" : 				{
					"comment" : "Toggle inverting the swizzed color used for procedural coloring",
					"id" : "obj-127",
					"index" : 0,
					"maxclass" : "inlet",
					"numinlets" : 0,
					"numoutlets" : 1,
					"outlettype" : [ "" ],
					"patching_rect" : [ 805.0, 45.498412999999999, 25.0, 25.0 ]
				}

			}
, 			{
				"box" : 				{
					"fontname" : "Ableton Sans Bold Regular",
					"fontsize" : 12.0,
					"hint" : "The COLORIZR module lets you grab one of the three color planes in your input and apply cosine-based procedural colorization to it for interesting results. It works well on greyscale images as well.",
					"id" : "obj-83",
					"maxclass" : "comment",
					"numinlets" : 1,
					"numoutlets" : 0,
					"patching_rect" : [ 29.609558, 355.771027000000004, 67.0, 21.0 ],
					"presentation" : 1,
					"presentation_rect" : [ 1.474807977676392, 16.0, 67.0, 21.0 ],
					"text" : "COLORIZR",
					"textcolor" : [ 1.0, 1.0, 1.0, 1.0 ]
				}

			}
, 			{
				"box" : 				{
					"fontname" : "Ableton Sans Bold Regular",
					"fontsize" : 9.0,
					"hint" : "Video output",
					"id" : "obj-43",
					"maxclass" : "comment",
					"numinlets" : 1,
					"numoutlets" : 0,
					"patching_rect" : [ 34.109558, 179.498412999999999, 41.0, 17.0 ],
					"presentation" : 1,
					"presentation_rect" : [ 3.474807977676392, 111.0, 35.0, 17.0 ],
					"text" : "Video",
					"textcolor" : [ 1.0, 1.0, 1.0, 1.0 ]
				}

			}
, 			{
				"box" : 				{
					"fontname" : "Ableton Sans Bold Regular",
					"fontsize" : 9.0,
					"hint" : "Video input",
					"id" : "obj-66",
					"maxclass" : "comment",
					"numinlets" : 1,
					"numoutlets" : 0,
					"patching_rect" : [ 34.109558, 52.863525000000003, 41.0, 17.0 ],
					"presentation" : 1,
					"presentation_rect" : [ 3.474807977676392, 0.0, 35.0, 17.0 ],
					"text" : "Video",
					"textcolor" : [ 1.0, 1.0, 1.0, 1.0 ]
				}

			}
, 			{
				"box" : 				{
					"id" : "obj-125",
					"maxclass" : "newobj",
					"numinlets" : 1,
					"numoutlets" : 1,
					"outlettype" : [ "" ],
					"patching_rect" : [ 286.0, 53.0, 70.0, 22.0 ],
					"text" : "loadmess 1"
				}

			}
, 			{
				"box" : 				{
					"color" : [ 0.941176, 0.690196, 0.196078, 1.0 ],
					"id" : "obj-22",
					"maxclass" : "newobj",
					"numinlets" : 1,
					"numoutlets" : 2,
					"outlettype" : [ "jit_gl_texture", "" ],
					"patching_rect" : [ 216.0, 617.0, 133.0, 22.0 ],
					"text" : "jit.gl.pix @gen colorizer"
				}

			}
, 			{
				"box" : 				{
					"id" : "obj-13",
					"maxclass" : "newobj",
					"numinlets" : 1,
					"numoutlets" : 2,
					"outlettype" : [ "", "" ],
					"patching_rect" : [ 216.0, 507.0, 41.5, 22.0 ],
					"text" : "t l l"
				}

			}
, 			{
				"box" : 				{
					"color" : [ 0.941176, 0.690196, 0.196078, 1.0 ],
					"id" : "obj-16",
					"maxclass" : "newobj",
					"numinlets" : 1,
					"numoutlets" : 2,
					"outlettype" : [ "", "" ],
					"patching_rect" : [ 238.5, 549.0, 67.0, 22.0 ],
					"text" : "vzgl-object"
				}

			}
, 			{
				"box" : 				{
					"align" : 2,
					"bgcolor" : [ 0.3, 0.3, 0.3, 1.0 ],
					"bgoncolor" : [ 0.165741, 0.364658, 0.14032, 1.0 ],
					"fontname" : "Ableton Sans Bold Regular",
					"fontsize" : 12.0,
					"hint" : "The COLORIZR module lets you grab one of the three color planes in your input and apply cosine-based procedural colorization to it for interesting results. It works well on greyscale images as well.",
					"id" : "obj-6",
					"legacytextcolor" : 1,
					"maxclass" : "textbutton",
					"mode" : 1,
					"numinlets" : 1,
					"numoutlets" : 3,
					"outlettype" : [ "", "", "int" ],
					"parameter_enable" : 1,
					"patching_rect" : [ 286.0, 126.0, 40.0, 20.0 ],
					"presentation" : 1,
					"presentation_rect" : [ 0.474808007478714, 16.0, 138.0, 19.0 ],
					"saved_attribute_attributes" : 					{
						"valueof" : 						{
							"parameter_mmax" : 1.0,
							"parameter_initial" : [ 1 ],
							"parameter_shortname" : "range",
							"parameter_enum" : [ "off", "on" ],
							"parameter_type" : 3,
							"parameter_longname" : "range[4]",
							"parameter_initial_enable" : 1,
							"parameter_invisible" : 1
						}

					}
,
					"text" : "OFF  ",
					"textcolor" : [ 1.0, 1.0, 1.0, 1.0 ],
					"textjustification" : 2,
					"texton" : "ON  ",
					"textoncolor" : [ 1.0, 1.0, 1.0, 1.0 ],
					"textovercolor" : [ 1.0, 1.0, 1.0, 1.0 ],
					"usebgoncolor" : 1,
					"varname" : "FreqMode[3]"
				}

			}
, 			{
				"box" : 				{
					"fontname" : "Ableton Sans Medium",
					"fontsize" : 12.0,
					"id" : "obj-56",
					"maxclass" : "newobj",
					"numinlets" : 2,
					"numoutlets" : 4,
					"outlettype" : [ "", "", "", "off" ],
					"patching_rect" : [ 194.0, 126.0, 85.0, 23.0 ],
					"text" : "video-handler"
				}

			}
, 			{
				"box" : 				{
					"comment" : "Video input",
					"id" : "obj-20",
					"index" : 0,
					"maxclass" : "inlet",
					"numinlets" : 0,
					"numoutlets" : 1,
					"outlettype" : [ "" ],
					"patching_rect" : [ 194.0, 53.0, 25.0, 25.0 ]
				}

			}
, 			{
				"box" : 				{
					"comment" : "Video output",
					"id" : "obj-14",
					"index" : 0,
					"maxclass" : "outlet",
					"numinlets" : 1,
					"numoutlets" : 0,
					"patching_rect" : [ 194.0, 705.0, 25.0, 25.0 ]
				}

			}
, 			{
				"box" : 				{
					"angle" : 0.0,
					"bgcolor" : [ 0.165741, 0.364658, 0.14032, 1.0 ],
					"id" : "obj-109",
					"maxclass" : "panel",
					"mode" : 0,
					"numinlets" : 1,
					"numoutlets" : 0,
					"patching_rect" : [ 29.609558, 109.739990000000006, 64.0, 64.0 ],
					"presentation" : 1,
					"presentation_rect" : [ 0.474808007478714, 16.0, 437.268768310546875, 19.0 ],
					"proportion" : 0.39,
					"rounded" : 0
				}

			}
, 			{
				"box" : 				{
					"angle" : 0.0,
					"bgcolor" : [ 0.0, 0.0, 0.0, 1.0 ],
					"id" : "obj-110",
					"maxclass" : "panel",
					"mode" : 0,
					"numinlets" : 1,
					"numoutlets" : 0,
					"patching_rect" : [ 29.609558, 42.006988999999997, 64.0, 64.0 ],
					"presentation" : 1,
					"presentation_rect" : [ 0.474808007478714, 0.0, 437.268768310546875, 17.0 ],
					"proportion" : 0.39,
					"rounded" : 0
				}

			}
, 			{
				"box" : 				{
					"angle" : 0.0,
					"bgcolor" : [ 0.0, 0.0, 0.0, 1.0 ],
					"id" : "obj-111",
					"maxclass" : "panel",
					"mode" : 0,
					"numinlets" : 1,
					"numoutlets" : 0,
					"patching_rect" : [ 29.609558, 323.569457999999997, 64.0, 64.0 ],
					"presentation" : 1,
					"presentation_rect" : [ 0.474808007478714, 110.0, 437.268768310546875, 35.433025360107422 ],
					"proportion" : 0.39,
					"rounded" : 0
				}

			}
, 			{
				"box" : 				{
					"angle" : 0.0,
					"bgcolor" : [ 0.627, 0.627, 0.627, 1.0 ],
					"id" : "obj-113",
					"maxclass" : "panel",
					"mode" : 0,
					"numinlets" : 1,
					"numoutlets" : 0,
					"patching_rect" : [ 29.609558, 179.498412999999999, 64.0, 64.0 ],
					"presentation" : 1,
					"presentation_rect" : [ 0.474808007478714, 16.0, 437.268768310546875, 129.433029174804688 ],
					"proportion" : 0.39
				}

			}
 ],
		"lines" : [ 			{
				"patchline" : 				{
					"destination" : [ "obj-25", 0 ],
					"source" : [ "obj-1", 1 ]
				}

			}
, 			{
				"patchline" : 				{
					"destination" : [ "obj-123", 0 ],
					"source" : [ "obj-11", 1 ]
				}

			}
, 			{
				"patchline" : 				{
					"destination" : [ "obj-124", 0 ],
					"source" : [ "obj-11", 0 ]
				}

			}
, 			{
				"patchline" : 				{
					"destination" : [ "obj-22", 0 ],
					"midpoints" : [ 811.0, 609.0, 225.5, 609.0 ],
					"source" : [ "obj-12", 0 ]
				}

			}
, 			{
				"patchline" : 				{
					"destination" : [ "obj-12", 0 ],
					"source" : [ "obj-121", 0 ]
				}

			}
, 			{
				"patchline" : 				{
					"destination" : [ "obj-121", 0 ],
					"source" : [ "obj-123", 0 ]
				}

			}
, 			{
				"patchline" : 				{
					"destination" : [ "obj-121", 0 ],
					"source" : [ "obj-124", 0 ]
				}

			}
, 			{
				"patchline" : 				{
					"destination" : [ "obj-6", 0 ],
					"source" : [ "obj-125", 0 ]
				}

			}
, 			{
				"patchline" : 				{
					"destination" : [ "obj-11", 0 ],
					"source" : [ "obj-126", 0 ]
				}

			}
, 			{
				"patchline" : 				{
					"destination" : [ "obj-128", 0 ],
					"source" : [ "obj-126", 1 ]
				}

			}
, 			{
				"patchline" : 				{
					"destination" : [ "obj-126", 0 ],
					"source" : [ "obj-127", 0 ]
				}

			}
, 			{
				"patchline" : 				{
					"color" : [ 0.0, 0.501961, 1.0, 1.0 ],
					"destination" : [ "obj-16", 0 ],
					"source" : [ "obj-13", 1 ]
				}

			}
, 			{
				"patchline" : 				{
					"color" : [ 0.0, 0.501961, 1.0, 1.0 ],
					"destination" : [ "obj-22", 0 ],
					"source" : [ "obj-13", 0 ]
				}

			}
, 			{
				"patchline" : 				{
					"destination" : [ "obj-22", 0 ],
					"midpoints" : [ 498.70001220703125, 584.849204974121108, 225.5, 584.849204974121108 ],
					"source" : [ "obj-15", 0 ]
				}

			}
, 			{
				"patchline" : 				{
					"color" : [ 1.0, 1.0, 1.0, 1.0 ],
					"destination" : [ "obj-22", 0 ],
					"source" : [ "obj-16", 0 ]
				}

			}
, 			{
				"patchline" : 				{
					"destination" : [ "obj-121", 0 ],
					"source" : [ "obj-168", 1 ]
				}

			}
, 			{
				"patchline" : 				{
					"destination" : [ "obj-104", 0 ],
					"source" : [ "obj-17", 1 ]
				}

			}
, 			{
				"patchline" : 				{
					"destination" : [ "obj-19", 0 ],
					"source" : [ "obj-17", 2 ]
				}

			}
, 			{
				"patchline" : 				{
					"destination" : [ "obj-47", 0 ],
					"source" : [ "obj-17", 0 ]
				}

			}
, 			{
				"patchline" : 				{
					"destination" : [ "obj-24", 0 ],
					"source" : [ "obj-19", 0 ]
				}

			}
, 			{
				"patchline" : 				{
					"destination" : [ "obj-24", 0 ],
					"source" : [ "obj-2", 1 ]
				}

			}
, 			{
				"patchline" : 				{
					"destination" : [ "obj-56", 0 ],
					"source" : [ "obj-20", 0 ]
				}

			}
, 			{
				"patchline" : 				{
					"destination" : [ "obj-14", 0 ],
					"source" : [ "obj-22", 0 ]
				}

			}
, 			{
				"patchline" : 				{
					"destination" : [ "obj-17", 0 ],
					"source" : [ "obj-23", 0 ]
				}

			}
, 			{
				"patchline" : 				{
					"destination" : [ "obj-15", 0 ],
					"source" : [ "obj-24", 0 ]
				}

			}
, 			{
				"patchline" : 				{
					"destination" : [ "obj-29", 0 ],
					"source" : [ "obj-25", 0 ]
				}

			}
, 			{
				"patchline" : 				{
					"destination" : [ "obj-25", 0 ],
					"source" : [ "obj-27", 0 ]
				}

			}
, 			{
				"patchline" : 				{
					"destination" : [ "obj-22", 0 ],
					"midpoints" : [ 648.70001220703125, 596.849204974121108, 225.5, 596.849204974121108 ],
					"source" : [ "obj-29", 0 ]
				}

			}
, 			{
				"patchline" : 				{
					"destination" : [ "obj-25", 0 ],
					"source" : [ "obj-32", 2 ]
				}

			}
, 			{
				"patchline" : 				{
					"destination" : [ "obj-26", 0 ],
					"source" : [ "obj-32", 1 ]
				}

			}
, 			{
				"patchline" : 				{
					"destination" : [ "obj-27", 0 ],
					"source" : [ "obj-32", 0 ]
				}

			}
, 			{
				"patchline" : 				{
					"destination" : [ "obj-32", 0 ],
					"source" : [ "obj-33", 0 ]
				}

			}
, 			{
				"patchline" : 				{
					"destination" : [ "obj-24", 0 ],
					"source" : [ "obj-47", 0 ]
				}

			}
, 			{
				"patchline" : 				{
					"color" : [ 0.0, 0.501961, 1.0, 1.0 ],
					"destination" : [ "obj-13", 0 ],
					"source" : [ "obj-56", 1 ]
				}

			}
, 			{
				"patchline" : 				{
					"destination" : [ "obj-14", 0 ],
					"source" : [ "obj-56", 0 ]
				}

			}
, 			{
				"patchline" : 				{
					"destination" : [ "obj-6", 0 ],
					"source" : [ "obj-56", 2 ]
				}

			}
, 			{
				"patchline" : 				{
					"destination" : [ "obj-56", 1 ],
					"source" : [ "obj-6", 0 ]
				}

			}
 ],
		"parameters" : 		{
			"obj-26" : [ "pictctrl[5]", "pictctrl[1]", 0 ],
			"obj-24" : [ "Color plane", "Color plane", 0 ],
			"obj-56::obj-23" : [ "gswitch2[2]", "gswitch2", 0 ],
			"obj-6" : [ "range[4]", "range", 0 ],
			"obj-104" : [ "pictctrl[9]", "pictctrl[1]", 0 ],
			"obj-121" : [ "Invert", "Invert", 0 ],
			"obj-25" : [ "Color palette", "Color palette", 0 ],
			"obj-128" : [ "range[24]", "range", 0 ],
			"parameterbanks" : 			{

			}

		}
,
		"dependency_cache" : [ 			{
				"name" : "video-handler.maxpat",
				"bootpath" : "~/dev/cycling/max6-git/max/packages/Vizzie/patchers/utils",
				"patcherrelativepath" : "./utils",
				"type" : "JSON",
				"implicit" : 1
			}
, 			{
				"name" : "vzgl-outputdim.maxpat",
				"bootpath" : "~/dev/cycling/max6-git/max/packages/Vizzie/patchers/utils",
				"patcherrelativepath" : "./utils",
				"type" : "JSON",
				"implicit" : 1
			}
, 			{
				"name" : "vzgl-object.maxpat",
				"bootpath" : "~/dev/cycling/max6-git/max/packages/Vizzie/patchers/utils",
				"patcherrelativepath" : "./utils",
				"type" : "JSON",
				"implicit" : 1
			}
, 			{
				"name" : "vizzie-global.js",
				"bootpath" : "~/dev/cycling/max6-git/max/packages/Vizzie/code",
				"patcherrelativepath" : "../code",
				"type" : "TEXT",
				"implicit" : 1
			}
, 			{
				"name" : "colorizer.genjit",
				"bootpath" : "~/dev/cycling/max6-git/max/packages/Vizzie/patchers/gen",
				"patcherrelativepath" : "./gen",
				"type" : "gJIT",
				"implicit" : 1
			}
, 			{
				"name" : "data-handler.maxpat",
				"bootpath" : "~/dev/cycling/max6-git/max/packages/Vizzie/patchers/utils",
				"patcherrelativepath" : "./utils",
				"type" : "JSON",
				"implicit" : 1
			}
, 			{
				"name" : "exact_menu.maxpat",
				"bootpath" : "~/dev/cycling/max6-git/max/packages/Vizzie/patchers/utils",
				"patcherrelativepath" : "./utils",
				"type" : "JSON",
				"implicit" : 1
			}
 ],
		"autosave" : 0,
		"bgcolor" : [ 0.86, 0.86, 0.86, 1.0 ]
	}

}
